<?xml version="1.0" encoding="UTF-8"?>
<svg width="864px" height="250px" viewBox="0 0 864 250" version="1.1" xmlns="http://www.w3.org/2000/svg" xmlns:xlink="http://www.w3.org/1999/xlink">
    <title>tshirt_black</title>
    <g id="makers" stroke="none" stroke-width="1" fill="none" fill-rule="evenodd">
        <g id="seal" transform="translate(-80.000000, -387.000000)" fill="#000000">
            <g id="tshirt_black" transform="translate(80.000000, 387.000000)">
                <path d="M863.505747,0 L863.505747,250 L731.939262,250 L731.939262,0 L863.505747,0 Z M285.687225,80.9139785 C291.952327,80.9139785 298.172585,81.3620027 304.348185,82.2580645 C310.523786,83.1541263 316.117543,84.9910255 321.129625,87.7688172 C326.141706,90.5466089 330.169212,94.4444194 333.212261,99.4623656 C336.255311,104.480312 337.776813,111.021465 337.776813,119.086022 L337.776813,190.591398 C337.776813,195.967769 338.090063,199.910382 338.716573,202.419355 C339.343084,204.928328 341.446336,206.182796 345.026395,206.182796 C346.995427,206.182796 349.32243,205.734772 352.007473,204.83871 L352.007473,222.580645 C348.069409,224.910406 342.609902,226.075269 335.628789,226.075269 C329.721692,226.075269 325.022936,224.417579 321.532379,221.102151 C318.041823,217.786722 316.29657,212.365629 316.29657,204.83871 C310.031468,212.365629 302.737209,217.786722 294.413573,221.102151 C286.089938,224.417579 277.095176,226.075269 267.429019,226.075269 C261.163917,226.075269 255.212159,225.35843 249.573567,223.924731 C243.934975,222.491032 239.057219,220.250911 234.940152,217.204301 C230.823085,214.157691 227.556331,210.170276 225.139791,205.241935 C222.723252,200.313595 221.515,194.354874 221.515,187.365591 C221.515,179.480247 222.857502,173.028699 225.542546,168.010753 C228.22759,162.992806 231.762844,158.915786 236.148416,155.77957 C240.533987,152.643353 245.545993,150.268825 251.184585,148.655914 C256.823177,147.043003 262.595935,145.69893 268.503031,144.623656 C274.768133,143.369169 280.719891,142.428319 286.358482,141.801075 C291.997074,141.173832 296.964331,140.277784 301.260401,139.112903 C305.556471,137.948023 308.957475,136.245531 311.463516,134.005376 C313.969557,131.765222 315.222558,128.494645 315.222558,124.193548 C315.222558,119.175602 314.282807,115.143384 312.403276,112.096774 C310.523746,109.050164 308.107243,106.720438 305.153695,105.107527 C302.200146,103.494616 298.888642,102.419358 295.219082,101.88172 C291.549523,101.344083 287.924768,101.075269 284.34471,101.075269 C274.678552,101.075269 266.623542,102.912168 260.179437,106.586022 C253.735332,110.259875 250.244827,117.20425 249.707819,127.419355 L226.885061,127.419355 C227.243067,118.817161 229.033069,111.559169 232.255122,105.645161 C235.477174,99.7311532 239.77318,94.9372944 245.143267,91.2634409 C250.513355,87.5895874 256.644113,84.9462446 263.535725,83.3333333 C270.427337,81.720422 277.811097,80.9139785 285.687225,80.9139785 Z M570.300437,80.9139785 C582.651639,80.9139785 592.899402,83.4677164 601.044034,88.5752688 C609.188667,93.6828212 615.722176,100.179172 620.644756,108.064516 C625.567336,115.94986 628.96834,124.551925 630.847871,133.870968 C632.727402,143.190011 633.488153,152.06089 633.130147,160.483871 L529.219474,160.483871 C529.040471,166.577091 529.756472,172.356603 531.367498,177.822581 C532.978524,183.288558 535.574028,188.127219 539.154086,192.33871 C542.734144,196.5502 547.29865,199.910382 552.84774,202.419355 C558.396831,204.928328 564.930339,206.182796 572.448462,206.182796 C582.114619,206.182796 590.035379,203.942675 596.21098,199.462366 C602.386581,194.982056 606.458836,188.172089 608.427868,179.032258 L630.982122,179.032258 C627.939073,194.623734 621.226564,206.361968 610.844395,214.247312 C600.462226,222.132656 587.395209,226.075269 571.642953,226.075269 C560.544772,226.075269 550.923509,224.283172 542.778877,220.698925 C534.634244,217.114677 527.787485,212.096806 522.238395,205.645161 C516.689305,199.193516 512.527549,191.4875 509.753004,182.526882 C506.978459,173.566263 505.412207,163.799336 505.054201,153.225806 C505.054201,142.652277 506.665203,132.974954 509.887256,124.193548 C513.109308,115.412142 517.629064,107.795731 523.446659,101.344086 C529.264253,94.8924409 536.155762,89.8745699 544.121392,86.2903226 C552.087022,82.7060753 560.813283,80.9139785 570.300437,80.9139785 Z M792.083941,80.9139785 C785.997842,80.9139785 779.867084,81.6756196 773.691483,83.1989247 C767.515883,84.7222298 761.966876,87.0519556 757.044295,90.188172 C752.121715,93.3243884 748.09421,97.4014086 744.961659,102.419355 C741.829108,107.437301 740.262856,113.440825 740.262856,120.430108 C740.262856,129.390726 742.500359,136.379903 746.975432,141.397849 C751.450505,146.415796 757.044262,150.313606 763.756871,153.091398 C770.469481,155.86919 777.76374,158.019706 785.639868,159.543011 C793.515996,161.066316 800.810256,162.768808 807.522865,164.650538 C814.235475,166.532267 819.829232,168.996401 824.304305,172.043011 C828.779378,175.089621 831.01688,179.569863 831.01688,185.483871 C831.01688,189.784968 829.942879,193.324359 827.794844,196.102151 C825.646809,198.879942 822.917056,200.985656 819.605502,202.419355 C816.293948,203.853054 812.669193,204.838707 808.731129,205.376344 C804.793065,205.913978 801.03406,206.182796 797.454002,206.182796 C792.799926,206.182796 788.28017,205.734772 783.894598,204.83871 C779.509027,203.942648 775.571022,202.464168 772.080465,200.403226 C768.589908,198.342284 765.770655,195.564534 763.62262,192.069892 C761.474585,188.575251 760.311083,184.319022 760.13208,179.301075 L760.13208,179.301075 L737.309323,179.301075 C737.667328,187.903269 739.457331,195.206063 742.679383,201.209677 C745.901436,207.213292 750.197441,212.051953 755.567529,215.725806 C760.937616,219.39966 767.113124,222.043003 774.094238,223.655914 C781.075352,225.268825 788.414361,226.075269 796.111486,226.075269 C803.0926,226.075269 810.118359,225.403233 817.188974,224.05914 C824.259589,222.715047 830.614098,220.340519 836.252689,216.935484 C841.891281,213.530449 846.455787,209.050207 849.946344,203.494624 C853.436901,197.93904 855.182153,190.949863 855.182153,182.526882 C855.182153,175.896024 853.884401,170.340524 851.288859,165.860215 C848.693317,161.379906 845.292313,157.661305 841.085744,154.704301 C836.879176,151.747297 832.046169,149.372769 826.58658,147.580645 C821.126991,145.788522 815.533234,144.265239 809.805141,143.010753 C804.435053,141.756266 799.065047,140.546601 793.694959,139.38172 C788.324872,138.21684 783.491865,136.783163 779.195795,135.080645 C774.899725,133.378128 771.364471,131.227612 768.589926,128.629032 C765.815381,126.030453 764.428129,122.759876 764.428129,118.817204 C764.428129,115.232957 765.32313,112.3208 767.113159,110.080645 C768.903188,107.840491 771.230191,106.048394 774.094238,104.704301 C776.958285,103.360208 780.135539,102.419358 783.626095,101.88172 C787.116652,101.344083 790.562407,101.075269 793.963462,101.075269 C797.722523,101.075269 801.436778,101.478491 805.106338,102.284946 C808.775898,103.091402 812.132152,104.390672 815.175202,106.182796 C818.218251,107.974919 820.724254,110.349448 822.693286,113.306452 C824.662319,116.263456 825.82582,119.982056 826.183826,124.462366 L826.183826,124.462366 L849.006583,124.462366 C848.469575,116.039384 846.679572,109.005405 843.636523,103.360215 C840.593473,97.7150255 836.521218,93.2347836 831.419635,89.9193548 C826.318052,86.6039261 820.455794,84.2742003 813.832686,82.9301075 C807.209579,81.5860148 799.960069,80.9139785 792.083941,80.9139785 Z M148.482176,80.9139785 C155.46329,80.9139785 161.773048,81.6756196 167.41164,83.1989247 C173.050232,84.7222298 177.883238,87.0967581 181.910803,90.3225806 C185.938369,93.5484032 189.070873,97.7150282 191.308409,102.822581 C193.545946,107.930133 194.664697,114.068065 194.664697,121.236559 L194.664697,223.11828 L171.84194,223.11828 L171.84194,131.989247 C171.84194,127.688151 171.483939,123.655933 170.767928,119.892473 C170.051916,116.129013 168.709414,112.858437 166.740382,110.080645 C164.77135,107.302853 162.041597,105.107535 158.55104,103.494624 C155.060483,101.881712 150.540727,101.075269 144.991637,101.075269 C133.714453,101.075269 124.853942,104.301043 118.409837,110.752688 C111.965732,117.204333 108.743727,125.806398 108.743727,136.55914 L108.743727,223.11828 L85.9209699,223.11828 L85.9209699,131.989247 C85.9209699,127.508938 85.5182193,123.387116 84.7127062,119.623656 C83.9071931,115.860196 82.5199413,112.58962 80.5509092,109.811828 C78.5818772,107.034036 75.9416238,104.88352 72.6300698,103.360215 C69.3185159,101.83691 65.0672604,101.075269 59.8761759,101.075269 C53.253068,101.075269 47.5698107,102.419341 42.8262334,105.107527 C38.0826562,107.795712 34.2341512,111.021487 31.2806031,114.784946 C28.327055,118.548406 26.1790522,122.446216 24.8365304,126.478495 C23.4940085,130.510773 22.8227576,133.870954 22.8227576,136.55914 L22.8227576,223.11828 L0,223.11828 L0,84.1397849 L21.4802425,84.1397849 L21.4802425,104.569892 L22.0172485,104.569892 C32.3994176,88.7992043 47.3459369,80.9139785 66.8572547,80.9139785 C75.4493946,80.9139785 83.2359046,82.7060753 90.2170184,86.2903226 C97.1981321,89.8745699 102.120638,95.9676989 104.984685,104.569892 C109.638761,97.0429731 115.769519,91.2186586 123.377143,87.0967742 C130.984767,82.9748898 139.353027,80.9139785 148.482176,80.9139785 Z M397.384486,31.1827957 L397.384486,144.892473 L460.751201,84.1397849 L491.360546,84.1397849 L436.317425,134.677419 L495.388092,223.11828 L466.389765,223.11828 L418.864728,150.537634 L397.384486,170.430108 L397.384486,223.11828 L374.561728,223.11828 L374.561728,31.1827957 L397.384486,31.1827957 Z M728.985729,80.9139785 L728.985729,105.107527 C719.85658,105.107527 712.07007,106.361995 705.625965,108.870968 C699.18186,111.379941 693.990853,115.053739 690.052789,119.892473 C686.114725,124.731207 683.250721,130.600324 681.460692,137.5 C679.670663,144.399676 678.775662,152.329704 678.775662,161.290323 L678.775662,223.11828 L655.952904,223.11828 L655.952904,84.1397849 L677.433147,84.1397849 L677.433147,113.44086 L677.970153,113.44086 C683.519243,102.150481 690.321252,93.8172312 698.376383,88.4408602 C706.431514,83.0644892 716.634528,80.5555538 728.985729,80.9139785 Z M314.954055,151.344086 C312.090009,153.494634 308.331004,155.062719 303.676928,156.048387 C299.022852,157.034055 294.145096,157.840499 289.043513,158.467742 C283.94193,159.094985 278.795673,159.811824 273.604588,160.61828 C268.413504,161.424735 263.759498,162.724005 259.642431,164.516129 C255.525364,166.308253 252.169109,168.861991 249.573567,172.177419 C246.978025,175.492848 245.680273,180.017892 245.680273,185.752688 C245.680273,189.516148 246.441024,192.69712 247.962549,195.295699 C249.484074,197.894278 251.453076,199.999992 253.869616,201.612903 C256.286155,203.225815 259.105409,204.390677 262.327461,205.107527 C265.549514,205.824376 268.950518,206.182796 272.530576,206.182796 C280.048699,206.182796 286.492707,205.15234 291.862795,203.091398 C297.232882,201.030456 301.618388,198.431915 305.019443,195.295699 C308.420498,192.159483 310.926502,188.754499 312.537528,185.080645 C314.148554,181.406792 314.954055,177.957005 314.954055,174.731183 L314.954055,151.344086 Z M568.957922,101.075269 C563.050826,101.075269 557.725569,102.105724 552.981992,104.166667 C548.238415,106.227609 544.166159,109.050161 540.765104,112.634409 C537.364049,116.218656 534.679045,120.385281 532.710013,125.134409 C530.740981,129.883536 529.57748,134.94621 529.219474,140.322581 L608.964874,140.322581 C608.606868,134.94621 607.398617,129.838734 605.340083,125 C603.281549,120.161266 600.507046,115.994641 597.016489,112.5 C593.525932,109.005359 589.408927,106.227609 584.66535,104.166667 C579.921772,102.105724 574.686016,101.075269 568.957922,101.075269 Z" id="Combined-Shape"></path>
            </g>
        </g>
    </g>
</svg>